<svg width="22" height="22" viewBox="0 0 22 22" fill="none" xmlns="http://www.w3.org/2000/svg">
<path d="M8.24998 20.1667C8.75624 20.1667 9.16665 19.7563 9.16665 19.25C9.16665 18.7437 8.75624 18.3333 8.24998 18.3333C7.74372 18.3333 7.33331 18.7437 7.33331 19.25C7.33331 19.7563 7.74372 20.1667 8.24998 20.1667Z" stroke="#1B1819" stroke-width="1.66667" stroke-linecap="round" stroke-linejoin="round"/>
<path d="M18.3334 20.1667C18.8396 20.1667 19.25 19.7563 19.25 19.25C19.25 18.7437 18.8396 18.3333 18.3334 18.3333C17.8271 18.3333 17.4167 18.7437 17.4167 19.25C17.4167 19.7563 17.8271 20.1667 18.3334 20.1667Z" stroke="#1B1819" stroke-width="1.66667" stroke-linecap="round" stroke-linejoin="round"/>
<path d="M0.916687 0.916672H4.58335L7.04002 13.1908C7.12384 13.6129 7.35344 13.992 7.6886 14.2618C8.02377 14.5316 8.44316 14.6749 8.87335 14.6667H17.7834C18.2135 14.6749 18.6329 14.5316 18.9681 14.2618C19.3033 13.992 19.5329 13.6129 19.6167 13.1908L21.0834 5.50001H5.50002" stroke="#1B1819" stroke-width="1.66667" stroke-linecap="round" stroke-linejoin="round"/>
</svg>
