<svg width="22" height="22" viewBox="0 0 22 22" fill="none" xmlns="http://www.w3.org/2000/svg">
<path d="M19.1033 4.22583C18.6351 3.75742 18.0792 3.38584 17.4674 3.13232C16.8555 2.87881 16.1997 2.74832 15.5375 2.74832C14.8752 2.74832 14.2194 2.87881 13.6076 3.13232C12.9957 3.38584 12.4398 3.75742 11.9716 4.22583L11 5.19749L10.0283 4.22583C9.08258 3.28011 7.79991 2.74881 6.46247 2.74881C5.12502 2.74881 3.84235 3.28011 2.89663 4.22583C1.95092 5.17155 1.41962 6.45421 1.41962 7.79166C1.41962 9.12911 1.95092 10.4118 2.89663 11.3575L3.8683 12.3292L11 19.4608L18.1316 12.3292L19.1033 11.3575C19.5717 10.8893 19.9433 10.3334 20.1968 9.72157C20.4503 9.10973 20.5808 8.45394 20.5808 7.79166C20.5808 7.12938 20.4503 6.47359 20.1968 5.86175C19.9433 5.24992 19.5717 4.69402 19.1033 4.22583V4.22583Z" stroke="#1B1819" stroke-width="1.66667" stroke-linecap="round" stroke-linejoin="round"/>
</svg>
