<svg width="185" height="22" viewBox="0 0 185 22" fill="none" xmlns="http://www.w3.org/2000/svg">
<path d="M7.59287 20.6676C8.10428 20.6676 8.61048 20.5989 9.11145 20.4614C9.61242 20.3134 10.0612 20.1019 10.4578 19.827C10.8544 19.5415 11.1727 19.1978 11.4128 18.796C11.6528 18.3836 11.7729 17.9077 11.7729 17.3684C11.7729 16.7234 11.6059 16.1524 11.2719 15.6554C10.9484 15.1478 10.5204 14.6878 9.98815 14.2754C9.45587 13.8524 8.84531 13.4559 8.15647 13.0858C7.47807 12.7157 6.78401 12.3456 6.0743 11.9755C5.36459 11.6054 4.66531 11.2194 3.97647 10.8176C3.29807 10.4052 2.69273 9.95049 2.16045 9.4535C1.62816 8.94593 1.19503 8.38548 0.861048 7.77217C0.537502 7.14828 0.37573 6.43451 0.37573 5.63086C0.37573 4.8272 0.521847 4.08171 0.814081 3.39438C1.11675 2.70704 1.5551 2.11488 2.12914 1.61788C2.70317 1.11031 3.40766 0.713771 4.24262 0.428262C5.08801 0.142754 6.05343 0 7.13887 0C8.11994 0 8.99664 0.105744 9.76898 0.317231C10.5413 0.528719 11.2197 0.840663 11.8042 1.25306C12.3886 1.66546 12.8844 2.17304 13.2914 2.77577C13.6985 3.37851 14.0272 4.07642 14.2777 4.8695L12.493 5.6943C12.2843 5.04927 12.0181 4.46239 11.6946 3.93367C11.371 3.39438 10.9849 2.93439 10.5361 2.55371C10.0873 2.17304 9.56546 1.88224 8.97055 1.68133C8.38608 1.46984 7.72334 1.3641 6.98231 1.3641C6.32479 1.3641 5.75075 1.45926 5.26022 1.6496C4.76968 1.82937 4.35742 2.07258 4.02344 2.37924C3.6999 2.67532 3.45463 3.0137 3.28764 3.39438C3.13108 3.76448 3.05281 4.14516 3.05281 4.53641C3.05281 5.08628 3.2198 5.59385 3.55378 6.05912C3.88776 6.51382 4.33133 6.94737 4.88449 7.35977C5.43765 7.7616 6.06386 8.15285 6.76314 8.53353C7.47285 8.9142 8.193 9.30017 8.92358 9.69142C9.65417 10.0827 10.3691 10.4898 11.0684 10.9128C11.7781 11.3357 12.4095 11.801 12.9627 12.3086C13.5158 12.8056 13.9594 13.3554 14.2934 13.9582C14.6274 14.5503 14.7944 15.2165 14.7944 15.9567C14.7944 16.7921 14.6378 17.5799 14.3247 18.3201C14.0116 19.0497 13.5419 19.6895 12.9157 20.2394C12.2895 20.7787 11.5119 21.2069 10.5831 21.5242C9.65417 21.8414 8.57395 22 7.34239 22C6.34044 22 5.44808 21.889 4.66531 21.6669C3.88254 21.4448 3.18849 21.1223 2.58314 20.6994C1.98824 20.2764 1.47683 19.7635 1.04891 19.1608C0.620998 18.5475 0.27136 17.8496 0 17.0671L1.86299 16.2898C2.08217 16.9772 2.3744 17.5905 2.7397 18.1298C3.11543 18.6691 3.54856 19.1291 4.0391 19.5097C4.52963 19.8798 5.07235 20.1653 5.66726 20.3663C6.2726 20.5672 6.91447 20.6676 7.59287 20.6676Z" fill="#1B1819"/>
<path d="M19.6475 0.475847H23.1387V21.5083H19.6475V0.475847Z" fill="#1B1819"/>
<path d="M28.7903 0.475847H32.2815V20.1442H42.7393V21.5083H28.7903V0.475847Z" fill="#1B1819"/>
<path d="M46.7784 0.475847L54.6217 17.2098L61.9015 0.475847H63.561L54.1364 22H53.2284L43.0993 0.475847H46.7784Z" fill="#1B1819"/>
<path d="M80.8915 0.475847V1.83994H69.9484V9.35833H77.2751V10.7224H69.9484V20.1442H80.8915V21.5083H66.4572V0.475847H80.8915Z" fill="#1B1819"/>
<path d="M84.9932 0.475847H92.1947C93.4367 0.475847 94.5274 0.613314 95.4667 0.888248C96.406 1.15261 97.1888 1.528 97.815 2.01442C98.4412 2.50084 98.9109 3.08243 99.224 3.75919C99.5475 4.42538 99.7093 5.15501 99.7093 5.94809C99.7093 6.6037 99.5841 7.21701 99.3336 7.78803C99.0935 8.35905 98.7491 8.87719 98.3003 9.34247C97.862 9.79716 97.3297 10.1937 96.7035 10.5321C96.0773 10.8599 95.3884 11.119 94.637 11.3093L102.199 21.5083H98.1438L90.9266 11.6265H88.4844V21.5083H84.9932V0.475847ZM88.4844 10.5638H90.5039C91.2867 10.5638 92.0069 10.4581 92.6644 10.2466C93.3323 10.0351 93.9064 9.739 94.3865 9.35833C94.877 8.96707 95.258 8.49652 95.5293 7.94665C95.8007 7.39678 95.9364 6.77818 95.9364 6.09084C95.9364 5.45638 95.8268 4.87479 95.6076 4.34607C95.3989 3.81735 95.0962 3.36794 94.6996 2.99784C94.3134 2.61716 93.849 2.32108 93.3063 2.10959C92.774 1.8981 92.1895 1.79236 91.5528 1.79236H88.4844V10.5638Z" fill="#1B1819"/>
<path d="M112.86 0.475847H120.061C121.303 0.475847 122.394 0.613314 123.333 0.888248C124.273 1.15261 125.055 1.528 125.682 2.01442C126.308 2.50084 126.778 3.08243 127.091 3.75919C127.414 4.42538 127.576 5.15501 127.576 5.94809C127.576 6.6037 127.451 7.21701 127.2 7.78803C126.96 8.35905 126.616 8.87719 126.167 9.34247C125.729 9.79716 125.196 10.1937 124.57 10.5321C123.944 10.8599 123.255 11.119 122.504 11.3093L130.065 21.5083H126.01L118.793 11.6265H116.351V21.5083H112.86V0.475847ZM116.351 10.5638H118.371C119.153 10.5638 119.873 10.4581 120.531 10.2466C121.199 10.0351 121.773 9.739 122.253 9.35833C122.744 8.96707 123.125 8.49652 123.396 7.94665C123.667 7.39678 123.803 6.77818 123.803 6.09084C123.803 5.45638 123.693 4.87479 123.474 4.34607C123.265 3.81735 122.963 3.36794 122.566 2.99784C122.18 2.61716 121.716 2.32108 121.173 2.10959C120.641 1.8981 120.056 1.79236 119.419 1.79236H116.351V10.5638Z" fill="#1B1819"/>
<path d="M132.899 0.475847H136.39V21.5083H132.899V0.475847Z" fill="#1B1819"/>
<path d="M142.042 0.475847H143.998L157.603 15.8616H157.76V0.475847H159.294V22H158.48L143.748 4.90123H143.623V21.5083H142.042V0.475847Z" fill="#1B1819"/>
<path d="M176.734 1.50685C175.482 1.50685 174.323 1.7342 173.258 2.1889C172.204 2.63302 171.291 3.27806 170.519 4.12401C169.757 4.95938 169.162 5.97452 168.734 7.16943C168.306 8.35376 168.092 9.68085 168.092 11.1507C168.092 12.6311 168.322 13.9688 168.781 15.1637C169.251 16.348 169.887 17.3578 170.691 18.1932C171.505 19.0286 172.46 19.6736 173.556 20.1283C174.652 20.5725 175.826 20.7945 177.078 20.7945C177.986 20.7945 178.806 20.6729 179.536 20.4297C180.267 20.1759 180.924 19.8164 181.509 19.3511V11.9755H177.579V10.7224H185V19.9697C184.395 20.2975 183.784 20.5883 183.168 20.8421C182.553 21.0959 181.885 21.3074 181.164 21.4766C180.455 21.6458 179.672 21.7726 178.816 21.8572C177.96 21.9524 176.99 22 175.904 22C174.756 22 173.665 21.8678 172.632 21.6035C171.599 21.3497 170.639 20.9849 169.752 20.509C168.875 20.0332 168.082 19.4674 167.372 18.8118C166.662 18.1456 166.057 17.4107 165.556 16.6071C165.065 15.8034 164.684 14.9416 164.413 14.0216C164.142 13.0911 164.006 12.1341 164.006 11.1507C164.006 10.1673 164.131 9.21029 164.382 8.27974C164.643 7.33862 165.013 6.45566 165.493 5.63086C165.973 4.79548 166.558 4.03413 167.247 3.34679C167.936 2.65946 168.713 2.06729 169.579 1.5703C170.446 1.0733 171.39 0.687335 172.413 0.412401C173.436 0.137467 174.521 0 175.669 0C176.765 0 177.778 0.153329 178.707 0.459986C179.646 0.756068 180.496 1.15261 181.258 1.6496C182.031 2.1466 182.714 2.7229 183.309 3.37851C183.904 4.02355 184.416 4.70031 184.843 5.4088L183.341 6.42394C182.464 4.72146 181.488 3.47897 180.413 2.69647C179.348 1.90339 178.122 1.50685 176.734 1.50685Z" fill="#1B1819"/>
</svg>
